{"title":"Detention [ATG 2011] 1080p.mp4","uid":7495026,"size":1970899776,"categoryP":"video","categoryS":"hd___movies","magnet":"?xt=urn:btih:30469bdce8d50b35469fc5441e3346d37b2bb4c1&amp;dn=Detention+%5BATG+2011%5D+1080p.mp4&amp;tr=udp%3A%2F%2Ftracker.openbittorrent.com%3A80&amp;tr=udp%3A%2F%2Fopen.demonii.com%3A1337&amp;tr=udp%3A%2F%2Ftracker.coppersurfer.tk%3A6969&amp;tr=udp%3A%2F%2Fexodus.desync.com%3A6969","seeders":0,"leechers":0,"uploader":"aresteam","files":1,"time":1343852919,"description":"General\nComplete name                            : Detention [ATG 2011] 1080p.mp4\nFormat                                   : MPEG-4\nFormat profile                           : Base Media\nCodec ID                                 : isom\nFile size                                : 1.84 GiB\nDuration                                 : 1h 33mn\nOverall bit rate mode                    : Variable\nOverall bit rate                         : 2 822 Kbps\n\nVideo\nID                                       : 1\nFormat                                   : AVC\nFormat/Info                              : Advanced Video Codec\nFormat profile                           : &lt;a class=&quot;__cf_email__&quot; href=&quot;/cdn-cgi/l/email-protection&quot; data-cfemail=&quot;d098b9b7b8909ce4fee1&quot;&gt;[email&amp;#160;protected]&lt;/a&gt;&lt;script cf-hash='f9e31' type=&quot;text/javascript&quot;&gt;\n/* &lt;![CDATA[ */!function(){try{var t=&quot;currentScript&quot;in document?document.currentScript:function(){for(var t=document.getElementsByTagName(&quot;script&quot;),e=t.length;e--;)if(t[e].getAttribute(&quot;cf-hash&quot;))return t[e]}();if(t&amp;&amp;t.previousSibling){var e,r,n,i,c=t.previousSibling,a=c.getAttribute(&quot;data-cfemail&quot;);if(a){for(e=&quot;&quot;,r=parseInt(a.substr(0,2),16),n=2;a.length-n;n+=2)i=parseInt(a.substr(n,2),16)^r,e+=String.fromCharCode(i);e=document.createTextNode(e),c.parentNode.replaceChild(e,c)}}}catch(u){}}();/* ]]&gt; */&lt;/script&gt;\nFormat settings, CABAC                   : Yes\nFormat settings, ReFrames                : 4 frames\nCodec ID                                 : avc1\nCodec ID/Info                            : Advanced Video Coding\nDuration                                 : 1h 33mn\nBit rate                                 : 2 500 Kbps\nMaximum bit rate                         : 24.0 Mbps\nWidth                                    : 1 920 pixels\nHeight                                   : 1 080 pixels\nDisplay aspect ratio                     : 16:9\nFrame rate mode                          : Constant\nFrame rate                               : 23.976 fps\nColor space                              : YUV\nChroma subsampling                       : 4:2:0\nBit depth                                : 8 bits\nScan type                                : Progressive\nBits/(Pixel*Frame)                       : 0.050\nStream size                              : 1.63 GiB (89%)\nWriting library                          : x264 core 118 r2085 8a62835\n\nAudio\nID                                       : 2\nFormat                                   : AAC\nFormat/Info                              : Advanced Audio Codec\nFormat profile                           : LC\nCodec ID                                 : 40\nDuration                                 : 1h 33mn\nBit rate mode                            : Variable\nBit rate                                 : 319 Kbps\nMaximum bit rate                         : 447 Kbps\nChannel(s)                               : 6 channels\nChannel positions                        : Front: L C R, Side: L R, LFE\nSampling rate                            : 48.0 KHz\nCompression mode                         : Lossy\nStream size                              : 212 MiB (11%)\n","torrent":{"xt":"urn:btih:30469bdce8d50b35469fc5441e3346d37b2bb4c1","amp;dn":"Detention+%5BATG+2011%5D+1080p.mp4","amp;tr":["udp%3A%2F%2Ftracker.openbittorrent.com%3A80","udp%3A%2F%2Fopen.demonii.com%3A1337","udp%3A%2F%2Ftracker.coppersurfer.tk%3A6969","udp%3A%2F%2Fexodus.desync.com%3A6969"],"infoHash":"30469bdce8d50b35469fc5441e3346d37b2bb4c1","infoHashBuffer":{"type":"Buffer","data":[48,70,155,220,232,213,11,53,70,159,197,68,30,51,70,211,123,43,180,193]},"announce":[],"urlList":[]}}